<svg xmlns="http://www.w3.org/2000/svg" viewBox="0 0 60.23 64.48"><path style="-inkscape-font-specification:Dosis" d="M19.67 51.15q-.1-.05-.17-.18-.05-.13-.05-.2 0-.34.72-.55.73-.23 1.45-.23.45 0 .78.1.4 0 .56.2l7.36 9.3 7.36-9.2q.17-.2.4-.4.27-.2.88-.2.6 0 1.4.2.83.2.83.5 0 .2-.3.4L32 62q-.2.2-.68.3-.45.1-1.06.1-.6 0-1.06-.1-.44-.1-.6-.3zm0-4.04q-.1 0-.17-.1-.05-.1-.05-.2 0-.3.72-.5.73-.2 1.45-.2.45 0 .78.1.4.1.56.3l7.36 9.3 7.36-9.2q.17-.2.4-.3.27-.1.88-.1.6 0 1.4.3.83.2.83.5 0 .2-.3.4L32 58q-.18.2-.62.3-.45.12-1.06.12-.6 0-1.06-.1-.45-.1-.6-.32zm0 2.1q-.1 0-.17-.2-.05-.1-.05-.2 0-.3.72-.5.73-.2 1.45-.2.45 0 .78.1.4.1.56.3l7.36 9.3 7.36-9.2q.17-.2.4-.3.27-.1.88-.1.6 0 1.4.3.83.2.83.56 0 .2-.3.4L32 60.08q-.18.2-.62.3-.45.1-1.06.1-.6 0-1.06-.1-.45-.1-.6-.3zm0 4.1q-.1 0-.17-.2-.05-.1-.05-.2 0-.3.72-.5.73-.2 1.45-.2.45 0 .78.1.4.1.56.3l7.36 9.3 7.36-9.2q.17-.2.4-.3.27-.1.88-.1.6 0 1.4.2.83.2.83.5 0 .2-.3.4L32 64.1q-.18.2-.62.3-.45.1-1.06.1-.6 0-1.06-.1-.45-.1-.6-.3zm40.56-25A29.7 27.75 0 0 1 30.53 56 29.7 27.75 0 0 1 .86 28.17 29.7 27.75 0 0 1 30.56.42a29.7 27.75 0 0 1 29.67 27.74z" font-family="Dosis" font-size="37.54" letter-spacing="0" word-spacing="0" fill="#0a4795"/><path d="M18.43 49.7q-.1-.06-.16-.2-.06-.12-.06-.2 0-.32.8-.52.7-.23 1.4-.23.5 0 .8.1.4.08.6.28l7.2 9.1 7.2-9q.2-.2.4-.33.3-.15.9-.15t1.4.23q.8.2.8.5 0 .2-.2.4l-8.8 10.68q-.1.2-.6.3-.4.1-1 .1t-1-.1q-.4-.1-.6-.3zm0-3.97q-.1-.05-.16-.18t-.06-.2q0-.33.8-.53.7-.23 1.4-.23.5 0 .8.1.4 0 .6.2L29 54l7.2-9q.17-.2.4-.4.27-.15.87-.15t1.37.22q.8.2.8.5 0 .2-.2.4l-8.8 10.7q-.15.2-.6.3-.43.1-1.03.1-.6 0-1-.1t-.6-.3zm0 1.98q-.1 0-.16-.1t-.06-.2q0-.3.8-.5.7-.2 1.4-.2.5 0 .8.1.4.1.6.3l7.2 9.1 7.2-9q.2-.2.4-.3.3-.1.9-.1t1.4.3q.8.2.8.5 0 .2-.2.4l-8.8 10.7q-.1.2-.6.3-.4.1-1 .1t-1-.1q-.4-.1-.6-.3zm0 4q-.1 0-.16-.2-.06-.1-.06-.2 0-.3.8-.5.7-.2 1.4-.2.5 0 .8.1.4.1.6.3l7.2 9.1 7.2-9q.2-.2.4-.3.3-.1.9-.1t1.4.3q.8.2.8.5 0 .2-.2.4l-8.8 10.7q-.1.2-.6.3-.4.1-1 .1t-1-.1q-.4-.1-.6-.3zm39.73-24.5a29.08 27.18 0 0 1-29.08 27.2A29.08 27.18 0 0 1 0 27.2 29.08 27.18 0 0 1 29.08 0a29.08 27.18 0 0 1 29.08 27.18z" style="-inkscape-font-specification:Dosis" font-family="Dosis" fill="#fff" font-size="37.54" letter-spacing="0" word-spacing="0"/><path style="line-height:125%;-inkscape-font-specification:dosis" d="M13.82 34.4v-2.17c0-.43.24-.84.72-1.22.53-.3 1.18-.5 1.93-.5.64 0 1.23.2 1.76.6.54.4.8.8.8 1.3v2.2c0 2.4 1 4.5 2.98 6.4 2 1.9 4.4 2.8 7.1 2.8 2.8 0 5.1-.9 7.1-2.72 2-1.9 3-4 3-6.4V25c0-.47.3-.87.8-1.2.6-.34 1.2-.5 1.9-.5s1.3.16 1.8.5c.6.33.8.73.8 1.2v9.37c0 3.56-1.5 6.7-4.6 9.4-3 2.67-6.5 4-10.7 4-4.2 0-7.7-1.33-10.7-4-3-2.7-4.5-5.84-4.5-9.4m7.4-24.9c0-.75.3-1.37.8-1.84.6-.48 1.3-.7 2.2-.7.8 0 1.5.22 2 .7.6.47.9 1.1.9 1.85 0 .72-.3 8.47-.9 9-.5.52-1.2.78-2 .78s-1.5-.26-2.1-.8c-.53-.5-.8-8.26-.8-8.97m9.9 0c0-.8.26-1.4.8-1.9s1.3-.7 2.16-.7c.83 0 1.5.2 2.1.7.5.4.8 1.1.8 1.8s-.3 8.4-.9 9c-.56.5-1.2.7-2 .7-.9 0-1.6-.3-2.2-.8-.54-.5-.8-8.3-.8-9" font-size="40" font-family="dosis" letter-spacing="0" word-spacing="0" fill="#27cda5"/></svg>