<?xml version="1.0" encoding="UTF-8" standalone="no"?>
<!-- Created with Inkscape (http://www.inkscape.org/) -->

<svg
   xmlns:dc="http://purl.org/dc/elements/1.1/"
   xmlns:cc="http://creativecommons.org/ns#"
   xmlns:rdf="http://www.w3.org/1999/02/22-rdf-syntax-ns#"
   xmlns:svg="http://www.w3.org/2000/svg"
   xmlns="http://www.w3.org/2000/svg"
   xmlns:sodipodi="http://sodipodi.sourceforge.net/DTD/sodipodi-0.dtd"
   xmlns:inkscape="http://www.inkscape.org/namespaces/inkscape"
   width="64"
   height="64"
   id="svg3794"
   version="1.1"
   inkscape:version="0.92.1 r"
   sodipodi:docname="ue-27cda5-32x32.svg"
   viewBox="0 0 64 64">
  <defs
     id="defs3796" />
  <sodipodi:namedview
     id="base"
     pagecolor="#ffffff"
     bordercolor="#666666"
     borderopacity="1.0"
     inkscape:pageopacity="0.0"
     inkscape:pageshadow="2"
     inkscape:zoom="7.03"
     inkscape:cx="11.560832"
     inkscape:cy="15.662017"
     inkscape:document-units="px"
     inkscape:current-layer="layer2"
     showgrid="false"
     fit-margin-top="0"
     fit-margin-left="0"
     fit-margin-right="0"
     fit-margin-bottom="0"
     inkscape:window-width="1920"
     inkscape:window-height="1016"
     inkscape:window-x="0"
     inkscape:window-y="27"
     inkscape:window-maximized="1"
     scale-x="1" />
  <metadata
     id="metadata3799">
    <rdf:RDF>
      <cc:Work
         rdf:about="">
        <dc:format>image/svg+xml</dc:format>
        <dc:type
           rdf:resource="http://purl.org/dc/dcmitype/StillImage" />
        <dc:title></dc:title>
      </cc:Work>
    </rdf:RDF>
  </metadata>
  <g
     inkscape:groupmode="layer"
     id="layer2"
     inkscape:label="Layer 2"
     style="display:inline">
    <g
       aria-label="v"
       transform="matrix(1.4695612,0,0,0.68047523,-363.29692,-484.0242)"
       style="font-style:normal;font-weight:normal;font-size:37.53840256px;line-height:125%;font-family:sans-serif;letter-spacing:0px;word-spacing:0px;display:inline;fill:#27cda5;fill-opacity:1;stroke:none;stroke-width:0.93846005px;stroke-linecap:butt;stroke-linejoin:miter;stroke-opacity:1"
       id="text4574" />
    <g
       aria-label="v"
       transform="scale(1.4695612,0.68047523)"
       style="font-style:normal;font-weight:normal;font-size:37.53840256px;line-height:125%;font-family:sans-serif;letter-spacing:0px;word-spacing:0px;display:inline;fill:#27cda5;fill-opacity:1;stroke:none;stroke-width:0.93846005px;stroke-linecap:butt;stroke-linejoin:miter;stroke-opacity:1"
       id="text4611" />
    <g
       aria-label="v"
       transform="scale(1.4695612,0.68047523)"
       style="font-style:normal;font-weight:normal;font-size:37.53840256px;line-height:125%;font-family:sans-serif;letter-spacing:0px;word-spacing:0px;display:inline;fill:#27cda5;fill-opacity:1;stroke:none;stroke-width:0.93846005px;stroke-linecap:butt;stroke-linejoin:miter;stroke-opacity:1"
       id="text4615" />
    <g
       aria-label="v"
       transform="matrix(1.4695612,0,0,0.68047523,-0.2190591,-0.71123756)"
       style="font-style:normal;font-weight:normal;font-size:37.53840256px;line-height:125%;font-family:sans-serif;letter-spacing:0px;word-spacing:0px;display:inline;fill:#ffb031;fill-opacity:1;stroke:none;stroke-width:0.93846005px;stroke-linecap:butt;stroke-linejoin:miter;stroke-opacity:1"
       id="text4619">
      <path
         id="path4645"
         style="font-style:normal;font-variant:normal;font-weight:normal;font-stretch:normal;font-family:Dosis;-inkscape-font-specification:Dosis;fill:#ffb031;fill-opacity:1;stroke-width:0.93846005px"
         d="m 14.605362,74.159695 q -0.07508,-0.07508 -0.112615,-0.262768 -0.03754,-0.187692 -0.03754,-0.300308 0,-0.487999 0.487999,-0.788306 0.487999,-0.337846 0.975998,-0.337846 0.300308,0 0.525538,0.150154 0.262769,0.112615 0.375384,0.412922 l 4.955069,13.513825 4.955069,-13.363671 q 0.112616,-0.300307 0.262769,-0.487999 0.187692,-0.225231 0.600615,-0.225231 0.412922,0 0.93846,0.337846 0.563076,0.300307 0.563076,0.750768 0,0.300307 -0.150154,0.600614 l -6.043683,15.841206 q -0.112615,0.300307 -0.412922,0.450461 -0.300307,0.150154 -0.71323,0.150154 -0.412922,0 -0.713229,-0.150154 -0.300308,-0.150154 -0.412923,-0.450461 z m 0,-5.87825 q -0.07508,-0.07508 -0.112615,-0.262769 -0.03754,-0.187692 -0.03754,-0.300307 0,-0.487999 0.487999,-0.788306 0.487999,-0.337846 0.975998,-0.337846 0.300308,0 0.525538,0.150154 0.262769,0.112615 0.375384,0.412922 l 4.955069,13.513825 4.955069,-13.363671 q 0.112616,-0.300307 0.262769,-0.487999 0.187692,-0.225231 0.600615,-0.225231 0.412922,0 0.93846,0.337846 0.563076,0.300307 0.563076,0.750768 0,0.300307 -0.150154,0.600614 l -6.043683,15.841206 q -0.112615,0.300307 -0.412922,0.450461 -0.300307,0.150154 -0.71323,0.150154 -0.412922,0 -0.713229,-0.150154 -0.300308,-0.150154 -0.412923,-0.450461 z m 0,2.939125 q -0.07508,-0.07508 -0.112615,-0.262768 -0.03754,-0.187692 -0.03754,-0.300308 0,-0.487999 0.487999,-0.788306 0.487999,-0.337846 0.975998,-0.337846 0.300308,0 0.525538,0.150154 0.262769,0.112615 0.375384,0.412922 l 4.955069,13.513825 4.955069,-13.363671 q 0.112616,-0.300307 0.262769,-0.487999 0.187692,-0.225231 0.600615,-0.225231 0.412922,0 0.93846,0.337846 0.563076,0.300307 0.563076,0.750768 0,0.300307 -0.150154,0.600614 l -6.043683,15.841206 q -0.112615,0.300307 -0.412922,0.450461 -0.300307,0.150154 -0.71323,0.150154 -0.412922,0 -0.713229,-0.150154 -0.300308,-0.150154 -0.412923,-0.450461 z m 2e-6,5.878243 q -0.0751,-0.0751 -0.11262,-0.26276 -0.0375,-0.1877 -0.0375,-0.30031 0,-0.488 0.48799,-0.78831 0.488,-0.33784 0.976,-0.33784 0.30031,0 0.52554,0.15015 0.26277,0.11262 0.37538,0.41292 l 4.95507,13.51383 4.95507,-13.36367 q 0.11262,-0.30031 0.26277,-0.488 0.18769,-0.22523 0.60062,-0.22523 0.41292,0 0.93846,0.33784 0.56307,0.30031 0.56307,0.75077 0,0.30031 -0.15015,0.60061 l -6.04368,15.84121 q -0.11262,0.30031 -0.41293,0.45046 -0.3003,0.15016 -0.71323,0.15016 -0.41292,0 -0.71323,-0.15016 -0.3003,-0.15015 -0.41292,-0.45046 z M 41.912627,40.746355 A 19.988355,40.344995 0 0 1 21.924272,81.09135 19.988355,40.344995 0 0 1 1.9359165,40.746355 19.988355,40.344995 0 0 1 21.924272,0.40135944 19.988355,40.344995 0 0 1 41.912627,40.746355 Z"
         inkscape:connector-curvature="0" />
    </g>
  </g>
  <g
     inkscape:label="Layer 1"
     inkscape:groupmode="layer"
     id="layer1"
     transform="translate(-363.29692,-484.0242)"
     style="display:inline"
     sodipodi:insensitive="true">
    <path
       d="m 377.44214,518.54659 v -2.53667 c 0,-0.50038 0.28191,-0.97298 0.84574,-1.41784 0.62647,-0.44478 1.37828,-0.66718 2.25535,-0.66723 0.75176,5e-5 1.4409,0.22245 2.06739,0.66723 0.62649,0.44486 0.93973,0.91746 0.93975,1.41784 v 2.53667 c 0,2.78006 1.15897,5.25433 3.47698,7.42279 2.31797,2.16846 5.07449,3.25267 8.26958,3.25267 3.19504,0 5.95157,-1.08421 8.26958,-3.25267 2.31795,-2.16846 3.477,-4.64273 3.477,-7.42279 v -10.96028 c -3e-5,-0.55599 0.3132,-1.02861 0.93972,-1.41784 0.62643,-0.38917 1.3469,-0.58381 2.16138,-0.58381 0.81438,0 1.50352,0.19473 2.06739,0.58381 0.62643,0.38923 0.93967,0.86185 0.9397,1.41784 v 10.96028 c -3e-5,4.17009 -1.78549,7.8398 -5.3564,11.00908 -3.50833,3.11368 -7.67449,4.67052 -12.49837,4.67052 -4.88659,0 -9.08403,-1.55684 -12.59233,-4.67052 -3.50832,-3.16928 -5.26247,-6.83899 -5.26246,-11.00908 m 8.64546,-29.10738 c 0,-0.8896 0.31324,-1.6124 0.93975,-2.16846 0.68911,-0.55596 1.53485,-0.83397 2.53726,-0.83403 0.93971,6e-5 1.7228,0.27807 2.3493,0.83403 0.68911,0.55606 1.03367,1.27886 1.03372,2.16846 -5e-5,0.83406 -0.34461,9.89711 -1.03372,10.50867 -0.6265,0.61166 -1.40959,0.91747 -2.3493,0.91742 -1.00241,5e-5 -1.84815,-0.30576 -2.53726,-0.91742 -0.62651,-0.61156 -0.93975,-9.67461 -0.93975,-10.50867 m 11.55865,0 c -3e-5,-0.8896 0.31321,-1.6124 0.93972,-2.16846 0.6891,-0.55596 1.53484,-0.83397 2.53727,-0.83403 1.00236,6e-5 1.81676,0.27807 2.44327,0.83403 0.62647,0.55606 0.93971,1.27886 0.93973,2.16846 -2e-5,0.83406 -0.3446,9.89711 -1.0337,10.50867 -0.62652,0.61166 -1.40961,0.91747 -2.3493,0.91742 -1.00243,5e-5 -1.84817,-0.30576 -2.53727,-0.91742 -0.62651,-0.61156 -0.93975,-9.67461 -0.93972,-10.50867"
       style="font-style:normal;font-weight:normal;font-size:40px;line-height:125%;font-family:dosis;-inkscape-font-specification:dosis;letter-spacing:0px;word-spacing:0px;fill:#27cda5;fill-opacity:1;stroke:none;stroke-width:1.49342108"
       id="path2994"
       inkscape:connector-curvature="0"
       sodipodi:nodetypes="csccccssscsccccccsscccccccccccccccccccc" />
    <flowRoot
       xml:space="preserve"
       id="flowRoot4564"
       style="font-style:normal;font-weight:normal;font-size:40px;line-height:125%;font-family:sans-serif;letter-spacing:0px;word-spacing:0px;fill:#000000;fill-opacity:1;stroke:none;stroke-width:1px;stroke-linecap:butt;stroke-linejoin:miter;stroke-opacity:1"
       transform="translate(363.29692,484.0242)"><flowRegion
         id="flowRegion4566"><rect
           id="rect4568"
           width="53.769558"
           height="44.381222"
           x="9.6728306"
           y="36.403984" /></flowRegion><flowPara
         id="flowPara4570">vvvvv</flowPara></flowRoot>  </g>
</svg>
