<?xml version="1.0" encoding="UTF-8" standalone="no"?>
<svg xmlns:rdf="http://www.w3.org/1999/02/22-rdf-syntax-ns#" xmlns="http://www.w3.org/2000/svg" height="32" width="32" version="1.1" xmlns:cc="http://creativecommons.org/ns#" xmlns:dc="http://purl.org/dc/elements/1.1/">
<g transform="translate(-363 -516)">
<path d="m367 538v-1.7c0-0.335 0.189-0.652 0.566-0.949 0.419-0.298 0.923-0.447 1.51-0.447 0.503 0.00003 0.965 0.149 1.38 0.447 0.42 0.298 0.629 0.614 0.629 0.949v1.7c0 1.86 0.776 3.52 2.33 4.97s3.4 2.18 5.54 2.18 3.99-0.726 5.54-2.18 2.33-3.11 2.33-4.97v-7.34c-0.00002-0.372 0.21-0.689 0.629-0.949 0.419-0.261 0.902-0.391 1.45-0.391 0.545 0 1.01 0.13 1.38 0.391 0.419 0.261 0.629 0.577 0.629 0.949v7.34c-0.00002 2.79-1.2 5.25-3.59 7.37-2.35 2.08-5.14 3.13-8.37 3.13-3.27 0-6.08-1.04-8.43-3.13-2.35-2.12-3.52-4.58-3.52-7.37m5.79-19.5c0-0.596 0.21-1.08 0.629-1.45 0.461-0.372 1.03-0.558 1.7-0.558 0.629 0.00004 1.15 0.186 1.57 0.558 0.461 0.372 0.692 0.856 0.692 1.45-0.00003 0.558-0.231 6.63-0.692 7.04-0.42 0.41-0.944 0.614-1.57 0.614-0.671 0.00003-1.24-0.205-1.7-0.614-0.42-0.41-0.629-6.48-0.629-7.04m7.74 0c-0.00002-0.596 0.21-1.08 0.629-1.45 0.461-0.372 1.03-0.558 1.7-0.558 0.671 0.00004 1.22 0.186 1.64 0.558 0.419 0.372 0.629 0.856 0.629 1.45-0.00002 0.558-0.231 6.63-0.692 7.04-0.42 0.41-0.944 0.614-1.57 0.614-0.671 0.00003-1.24-0.205-1.7-0.614-0.42-0.41-0.629-6.48-0.629-7.04" fill="#27cda5"/>
</g>
</svg>
